<mxfile host="app.diagrams.net" agent="Mozilla/5.0 (Windows NT 10.0; Win64; x64) AppleWebKit/537.36 (KHTML, like Gecko) Chrome/138.0.0.0 Safari/537.36" version="28.0.7">
  <diagram name="Page-1" id="P_DEz7pbVZfTCN3_B9v9">
    <mxGraphModel dx="1514" dy="1006" grid="1" gridSize="10" guides="1" tooltips="1" connect="1" arrows="1" fold="1" page="1" pageScale="1" pageWidth="850" pageHeight="1100" math="0" shadow="0">
      <root>
        <mxCell id="0" />
        <mxCell id="1" parent="0" />
        <mxCell id="lvzLjgwR75ddLyBQyiJ9-1" value="&lt;font style=&quot;font-size: 22px;&quot;&gt;Student Information System&lt;/font&gt;" style="rounded=0;whiteSpace=wrap;html=1;labelBackgroundColor=none;fillColor=#A8DADC;strokeColor=#457B9D;fontColor=#1D3557;" parent="1" vertex="1">
          <mxGeometry x="230" y="20" width="690" height="60" as="geometry" />
        </mxCell>
        <mxCell id="lvzLjgwR75ddLyBQyiJ9-26" value="" style="edgeStyle=none;curved=1;rounded=0;orthogonalLoop=1;jettySize=auto;html=1;fontSize=12;startSize=8;endSize=8;labelBackgroundColor=none;strokeColor=#457B9D;fontColor=default;" parent="1" source="lvzLjgwR75ddLyBQyiJ9-2" target="lvzLjgwR75ddLyBQyiJ9-4" edge="1">
          <mxGeometry relative="1" as="geometry" />
        </mxCell>
        <mxCell id="lvzLjgwR75ddLyBQyiJ9-29" value="" style="edgeStyle=none;curved=1;rounded=0;orthogonalLoop=1;jettySize=auto;html=1;fontSize=12;startSize=8;endSize=8;labelBackgroundColor=none;strokeColor=#457B9D;fontColor=default;" parent="1" source="lvzLjgwR75ddLyBQyiJ9-2" target="lvzLjgwR75ddLyBQyiJ9-6" edge="1">
          <mxGeometry relative="1" as="geometry" />
        </mxCell>
        <mxCell id="lvzLjgwR75ddLyBQyiJ9-2" value="Admin" style="rounded=0;whiteSpace=wrap;html=1;labelBackgroundColor=none;fillColor=#A8DADC;strokeColor=#457B9D;fontColor=#1D3557;" parent="1" vertex="1">
          <mxGeometry x="40" y="160" width="200" height="50" as="geometry" />
        </mxCell>
        <mxCell id="lvzLjgwR75ddLyBQyiJ9-73" value="" style="edgeStyle=none;curved=1;rounded=0;orthogonalLoop=1;jettySize=auto;html=1;fontSize=12;startSize=8;endSize=8;labelBackgroundColor=none;strokeColor=#457B9D;fontColor=default;" parent="1" source="lvzLjgwR75ddLyBQyiJ9-3" target="lvzLjgwR75ddLyBQyiJ9-14" edge="1">
          <mxGeometry relative="1" as="geometry" />
        </mxCell>
        <mxCell id="lvzLjgwR75ddLyBQyiJ9-3" value="Manage Timetable Details&amp;nbsp;" style="rounded=0;whiteSpace=wrap;html=1;labelBackgroundColor=none;fillColor=#A8DADC;strokeColor=#457B9D;fontColor=#1D3557;" parent="1" vertex="1">
          <mxGeometry x="910" y="142.5" width="250" height="50" as="geometry" />
        </mxCell>
        <mxCell id="lvzLjgwR75ddLyBQyiJ9-27" value="" style="edgeStyle=none;curved=1;rounded=0;orthogonalLoop=1;jettySize=auto;html=1;fontSize=12;startSize=8;endSize=8;labelBackgroundColor=none;strokeColor=#457B9D;fontColor=default;" parent="1" source="lvzLjgwR75ddLyBQyiJ9-4" target="lvzLjgwR75ddLyBQyiJ9-5" edge="1">
          <mxGeometry relative="1" as="geometry" />
        </mxCell>
        <mxCell id="lvzLjgwR75ddLyBQyiJ9-4" value="Forgot Password" style="ellipse;whiteSpace=wrap;html=1;aspect=fixed;labelBackgroundColor=none;fillColor=#A8DADC;strokeColor=#457B9D;fontColor=#1D3557;" parent="1" vertex="1">
          <mxGeometry x="90" y="315" width="100" height="100" as="geometry" />
        </mxCell>
        <mxCell id="lvzLjgwR75ddLyBQyiJ9-5" value="Send Email to User" style="ellipse;whiteSpace=wrap;html=1;aspect=fixed;labelBackgroundColor=none;fillColor=#A8DADC;strokeColor=#457B9D;fontColor=#1D3557;" parent="1" vertex="1">
          <mxGeometry x="80" y="530" width="110" height="110" as="geometry" />
        </mxCell>
        <mxCell id="lvzLjgwR75ddLyBQyiJ9-30" value="" style="edgeStyle=none;curved=1;rounded=0;orthogonalLoop=1;jettySize=auto;html=1;fontSize=12;startSize=8;endSize=8;labelBackgroundColor=none;strokeColor=#457B9D;fontColor=default;" parent="1" source="lvzLjgwR75ddLyBQyiJ9-6" target="lvzLjgwR75ddLyBQyiJ9-8" edge="1">
          <mxGeometry relative="1" as="geometry" />
        </mxCell>
        <mxCell id="lvzLjgwR75ddLyBQyiJ9-6" value="login to System" style="ellipse;whiteSpace=wrap;html=1;aspect=fixed;labelBackgroundColor=none;fillColor=#A8DADC;strokeColor=#457B9D;fontColor=#1D3557;" parent="1" vertex="1">
          <mxGeometry x="350" y="110" width="150" height="150" as="geometry" />
        </mxCell>
        <mxCell id="lvzLjgwR75ddLyBQyiJ9-39" value="" style="edgeStyle=none;curved=1;rounded=0;orthogonalLoop=1;jettySize=auto;html=1;fontSize=12;startSize=8;endSize=8;labelBackgroundColor=none;strokeColor=#457B9D;fontColor=default;" parent="1" source="lvzLjgwR75ddLyBQyiJ9-7" target="lvzLjgwR75ddLyBQyiJ9-9" edge="1">
          <mxGeometry relative="1" as="geometry" />
        </mxCell>
        <mxCell id="lvzLjgwR75ddLyBQyiJ9-7" value="Check Roles of Acces" style="ellipse;whiteSpace=wrap;html=1;aspect=fixed;labelBackgroundColor=none;fillColor=#A8DADC;strokeColor=#457B9D;fontColor=#1D3557;" parent="1" vertex="1">
          <mxGeometry x="610" y="110" width="150" height="150" as="geometry" />
        </mxCell>
        <mxCell id="lvzLjgwR75ddLyBQyiJ9-8" value="Check Credentials" style="ellipse;whiteSpace=wrap;html=1;aspect=fixed;labelBackgroundColor=none;fillColor=#A8DADC;strokeColor=#457B9D;fontColor=#1D3557;" parent="1" vertex="1">
          <mxGeometry x="369" y="370" width="112.5" height="112.5" as="geometry" />
        </mxCell>
        <mxCell id="lvzLjgwR75ddLyBQyiJ9-9" value="Manage Modules" style="ellipse;whiteSpace=wrap;html=1;aspect=fixed;labelBackgroundColor=none;fillColor=#A8DADC;strokeColor=#457B9D;fontColor=#1D3557;" parent="1" vertex="1">
          <mxGeometry x="605" y="340" width="160" height="160" as="geometry" />
        </mxCell>
        <mxCell id="lvzLjgwR75ddLyBQyiJ9-10" value="Manage System Admins" style="rounded=0;whiteSpace=wrap;html=1;labelBackgroundColor=none;fillColor=#A8DADC;strokeColor=#457B9D;fontColor=#1D3557;" parent="1" vertex="1">
          <mxGeometry x="90" y="880" width="190" height="50" as="geometry" />
        </mxCell>
        <mxCell id="lvzLjgwR75ddLyBQyiJ9-11" value="Manage Roles of User&amp;nbsp;" style="rounded=0;whiteSpace=wrap;html=1;labelBackgroundColor=none;fillColor=#A8DADC;strokeColor=#457B9D;fontColor=#1D3557;" parent="1" vertex="1">
          <mxGeometry x="335.25" y="880" width="180" height="50" as="geometry" />
        </mxCell>
        <mxCell id="lvzLjgwR75ddLyBQyiJ9-12" value="Manage User Permission" style="rounded=0;whiteSpace=wrap;html=1;labelBackgroundColor=none;fillColor=#A8DADC;strokeColor=#457B9D;fontColor=#1D3557;" parent="1" vertex="1">
          <mxGeometry x="600" y="875" width="170" height="50" as="geometry" />
        </mxCell>
        <mxCell id="lvzLjgwR75ddLyBQyiJ9-13" value="Manage Attendance Details" style="rounded=0;whiteSpace=wrap;html=1;labelBackgroundColor=none;fillColor=#A8DADC;strokeColor=#457B9D;fontColor=#1D3557;" parent="1" vertex="1">
          <mxGeometry x="910" y="240" width="250" height="50" as="geometry" />
        </mxCell>
        <mxCell id="lvzLjgwR75ddLyBQyiJ9-14" value="Manage Class Details" style="rounded=0;whiteSpace=wrap;html=1;labelBackgroundColor=none;fillColor=#A8DADC;strokeColor=#457B9D;fontColor=#1D3557;" parent="1" vertex="1">
          <mxGeometry x="910" y="350" width="250" height="50" as="geometry" />
        </mxCell>
        <mxCell id="PxpN8cYJus5iPQmPoDy3-5" value="" style="edgeStyle=none;curved=1;rounded=0;orthogonalLoop=1;jettySize=auto;html=1;strokeColor=#457B9D;fontSize=12;fontColor=#1D3557;startSize=8;endSize=8;fillColor=#A8DADC;" edge="1" parent="1" source="lvzLjgwR75ddLyBQyiJ9-15" target="lvzLjgwR75ddLyBQyiJ9-18">
          <mxGeometry relative="1" as="geometry" />
        </mxCell>
        <mxCell id="lvzLjgwR75ddLyBQyiJ9-15" value="Manage Student Details" style="rounded=0;whiteSpace=wrap;html=1;labelBackgroundColor=none;fillColor=#A8DADC;strokeColor=#457B9D;fontColor=#1D3557;" parent="1" vertex="1">
          <mxGeometry x="910" y="460" width="250" height="60" as="geometry" />
        </mxCell>
        <mxCell id="PxpN8cYJus5iPQmPoDy3-7" value="" style="edgeStyle=none;curved=1;rounded=0;orthogonalLoop=1;jettySize=auto;html=1;strokeColor=#457B9D;fontSize=12;fontColor=#1D3557;startSize=8;endSize=8;fillColor=#A8DADC;" edge="1" parent="1" source="lvzLjgwR75ddLyBQyiJ9-18" target="lvzLjgwR75ddLyBQyiJ9-19">
          <mxGeometry relative="1" as="geometry" />
        </mxCell>
        <mxCell id="lvzLjgwR75ddLyBQyiJ9-18" value="Manage Fees Details" style="rounded=0;whiteSpace=wrap;html=1;labelBackgroundColor=none;fillColor=#A8DADC;strokeColor=#457B9D;fontColor=#1D3557;" parent="1" vertex="1">
          <mxGeometry x="920" y="590" width="240" height="60" as="geometry" />
        </mxCell>
        <mxCell id="PxpN8cYJus5iPQmPoDy3-6" value="" style="edgeStyle=none;curved=1;rounded=0;orthogonalLoop=1;jettySize=auto;html=1;strokeColor=#457B9D;fontSize=12;fontColor=#1D3557;startSize=8;endSize=8;fillColor=#A8DADC;" edge="1" parent="1" source="lvzLjgwR75ddLyBQyiJ9-19" target="lvzLjgwR75ddLyBQyiJ9-31">
          <mxGeometry relative="1" as="geometry" />
        </mxCell>
        <mxCell id="lvzLjgwR75ddLyBQyiJ9-19" value="&amp;nbsp;Manage Teacher Profiles" style="rounded=0;whiteSpace=wrap;html=1;labelBackgroundColor=none;fillColor=#A8DADC;strokeColor=#457B9D;fontColor=#1D3557;" parent="1" vertex="1">
          <mxGeometry x="920" y="710" width="250" height="60" as="geometry" />
        </mxCell>
        <mxCell id="lvzLjgwR75ddLyBQyiJ9-25" style="edgeStyle=none;curved=1;rounded=0;orthogonalLoop=1;jettySize=auto;html=1;exitX=1;exitY=1;exitDx=0;exitDy=0;fontSize=12;startSize=8;endSize=8;labelBackgroundColor=none;strokeColor=#457B9D;fontColor=default;" parent="1" source="lvzLjgwR75ddLyBQyiJ9-7" target="lvzLjgwR75ddLyBQyiJ9-7" edge="1">
          <mxGeometry relative="1" as="geometry" />
        </mxCell>
        <mxCell id="lvzLjgwR75ddLyBQyiJ9-31" value="Manage Report" style="rounded=0;whiteSpace=wrap;html=1;labelBackgroundColor=none;fillColor=#A8DADC;strokeColor=#457B9D;fontColor=#1D3557;" parent="1" vertex="1">
          <mxGeometry x="920" y="830" width="250" height="60" as="geometry" />
        </mxCell>
        <mxCell id="lvzLjgwR75ddLyBQyiJ9-38" value="" style="endArrow=classic;html=1;rounded=0;fontSize=12;startSize=8;endSize=8;curved=1;entryX=0;entryY=1;entryDx=0;entryDy=0;labelBackgroundColor=none;strokeColor=#457B9D;fontColor=default;" parent="1" target="lvzLjgwR75ddLyBQyiJ9-7" edge="1">
          <mxGeometry width="50" height="50" relative="1" as="geometry">
            <mxPoint x="470" y="410" as="sourcePoint" />
            <mxPoint x="520" y="360" as="targetPoint" />
          </mxGeometry>
        </mxCell>
        <mxCell id="lvzLjgwR75ddLyBQyiJ9-45" value="" style="endArrow=classic;html=1;rounded=0;fontSize=12;startSize=8;endSize=8;curved=1;labelBackgroundColor=none;strokeColor=#457B9D;fontColor=default;" parent="1" source="lvzLjgwR75ddLyBQyiJ9-9" edge="1">
          <mxGeometry width="50" height="50" relative="1" as="geometry">
            <mxPoint x="850" y="220" as="sourcePoint" />
            <mxPoint x="900" y="170" as="targetPoint" />
          </mxGeometry>
        </mxCell>
        <mxCell id="lvzLjgwR75ddLyBQyiJ9-49" value="" style="endArrow=classic;html=1;rounded=0;fontSize=12;startSize=8;endSize=8;curved=1;labelBackgroundColor=none;strokeColor=#457B9D;fontColor=default;" parent="1" source="lvzLjgwR75ddLyBQyiJ9-9" edge="1">
          <mxGeometry width="50" height="50" relative="1" as="geometry">
            <mxPoint x="850" y="310" as="sourcePoint" />
            <mxPoint x="900" y="260" as="targetPoint" />
          </mxGeometry>
        </mxCell>
        <mxCell id="lvzLjgwR75ddLyBQyiJ9-51" value="" style="endArrow=classic;html=1;rounded=0;fontSize=12;startSize=8;endSize=8;curved=1;exitX=1;exitY=0.5;exitDx=0;exitDy=0;labelBackgroundColor=none;strokeColor=#457B9D;fontColor=default;" parent="1" source="lvzLjgwR75ddLyBQyiJ9-9" edge="1">
          <mxGeometry width="50" height="50" relative="1" as="geometry">
            <mxPoint x="860" y="420" as="sourcePoint" />
            <mxPoint x="910" y="370" as="targetPoint" />
          </mxGeometry>
        </mxCell>
        <mxCell id="lvzLjgwR75ddLyBQyiJ9-52" value="" style="endArrow=classic;html=1;rounded=0;fontSize=12;startSize=8;endSize=8;curved=1;exitX=1;exitY=1;exitDx=0;exitDy=0;labelBackgroundColor=none;strokeColor=#457B9D;fontColor=default;" parent="1" source="lvzLjgwR75ddLyBQyiJ9-9" edge="1">
          <mxGeometry width="50" height="50" relative="1" as="geometry">
            <mxPoint x="860" y="540" as="sourcePoint" />
            <mxPoint x="910" y="490" as="targetPoint" />
          </mxGeometry>
        </mxCell>
        <mxCell id="lvzLjgwR75ddLyBQyiJ9-53" value="" style="endArrow=classic;html=1;rounded=0;fontSize=12;startSize=8;endSize=8;curved=1;exitX=1;exitY=1;exitDx=0;exitDy=0;entryX=0;entryY=0.5;entryDx=0;entryDy=0;labelBackgroundColor=none;strokeColor=#457B9D;fontColor=default;" parent="1" source="lvzLjgwR75ddLyBQyiJ9-9" target="lvzLjgwR75ddLyBQyiJ9-18" edge="1">
          <mxGeometry width="50" height="50" relative="1" as="geometry">
            <mxPoint x="870" y="700" as="sourcePoint" />
            <mxPoint x="920" y="650" as="targetPoint" />
            <Array as="points">
              <mxPoint x="810" y="530" />
            </Array>
          </mxGeometry>
        </mxCell>
        <mxCell id="lvzLjgwR75ddLyBQyiJ9-60" value="" style="endArrow=classic;html=1;rounded=0;fontSize=12;startSize=8;endSize=8;curved=1;exitX=0.5;exitY=1;exitDx=0;exitDy=0;labelBackgroundColor=none;strokeColor=#457B9D;fontColor=default;" parent="1" source="lvzLjgwR75ddLyBQyiJ9-9" edge="1">
          <mxGeometry width="50" height="50" relative="1" as="geometry">
            <mxPoint x="860" y="780" as="sourcePoint" />
            <mxPoint x="910" y="730" as="targetPoint" />
          </mxGeometry>
        </mxCell>
        <mxCell id="lvzLjgwR75ddLyBQyiJ9-62" value="" style="endArrow=classic;html=1;rounded=0;fontSize=12;startSize=8;endSize=8;curved=1;entryX=0.75;entryY=0;entryDx=0;entryDy=0;labelBackgroundColor=none;strokeColor=#457B9D;fontColor=default;" parent="1" source="lvzLjgwR75ddLyBQyiJ9-9" target="lvzLjgwR75ddLyBQyiJ9-11" edge="1">
          <mxGeometry width="50" height="50" relative="1" as="geometry">
            <mxPoint x="410" y="910" as="sourcePoint" />
            <mxPoint x="460" y="860" as="targetPoint" />
          </mxGeometry>
        </mxCell>
        <mxCell id="lvzLjgwR75ddLyBQyiJ9-66" value="" style="endArrow=classic;html=1;rounded=0;fontSize=12;startSize=8;endSize=8;curved=1;labelBackgroundColor=none;strokeColor=#457B9D;fontColor=default;" parent="1" source="lvzLjgwR75ddLyBQyiJ9-9" edge="1">
          <mxGeometry width="50" height="50" relative="1" as="geometry">
            <mxPoint x="620" y="920" as="sourcePoint" />
            <mxPoint x="670" y="870" as="targetPoint" />
          </mxGeometry>
        </mxCell>
        <mxCell id="lvzLjgwR75ddLyBQyiJ9-69" value="" style="endArrow=classic;html=1;rounded=0;fontSize=12;startSize=8;endSize=8;curved=1;exitX=0;exitY=1;exitDx=0;exitDy=0;labelBackgroundColor=none;strokeColor=#457B9D;fontColor=default;" parent="1" source="lvzLjgwR75ddLyBQyiJ9-9" edge="1">
          <mxGeometry width="50" height="50" relative="1" as="geometry">
            <mxPoint x="140" y="910" as="sourcePoint" />
            <mxPoint x="190" y="860" as="targetPoint" />
          </mxGeometry>
        </mxCell>
        <mxCell id="lvzLjgwR75ddLyBQyiJ9-70" style="edgeStyle=none;curved=1;rounded=0;orthogonalLoop=1;jettySize=auto;html=1;exitX=0.75;exitY=0;exitDx=0;exitDy=0;entryX=0.5;entryY=0;entryDx=0;entryDy=0;fontSize=12;startSize=8;endSize=8;labelBackgroundColor=none;strokeColor=#457B9D;fontColor=default;" parent="1" source="lvzLjgwR75ddLyBQyiJ9-10" target="lvzLjgwR75ddLyBQyiJ9-10" edge="1">
          <mxGeometry relative="1" as="geometry" />
        </mxCell>
        <mxCell id="lvzLjgwR75ddLyBQyiJ9-72" value="" style="endArrow=classic;html=1;rounded=0;fontSize=12;startSize=8;endSize=8;curved=1;labelBackgroundColor=none;strokeColor=#457B9D;fontColor=default;" parent="1" edge="1">
          <mxGeometry width="50" height="50" relative="1" as="geometry">
            <mxPoint x="690" y="510" as="sourcePoint" />
            <mxPoint x="920" y="840" as="targetPoint" />
          </mxGeometry>
        </mxCell>
      </root>
    </mxGraphModel>
  </diagram>
</mxfile>
